<svg width="157" height="16" viewBox="0 0 157 16" fill="none" xmlns="http://www.w3.org/2000/svg">
<path d="M8.94 4.52C8.64667 4.14667 8.26 3.85333 7.78 3.64C7.31333 3.41333 6.86 3.3 6.42 3.3C6.19333 3.3 5.96 3.32 5.72 3.36C5.49333 3.4 5.28667 3.48 5.1 3.6C4.91333 3.70667 4.75333 3.85333 4.62 4.04C4.5 4.21333 4.44 4.44 4.44 4.72C4.44 4.96 4.48667 5.16 4.58 5.32C4.68667 5.48 4.83333 5.62 5.02 5.74C5.22 5.86 5.45333 5.97333 5.72 6.08C5.98667 6.17333 6.28667 6.27333 6.62 6.38C7.1 6.54 7.6 6.72 8.12 6.92C8.64 7.10667 9.11333 7.36 9.54 7.68C9.96667 8 10.32 8.4 10.6 8.88C10.88 9.34667 11.02 9.93333 11.02 10.64C11.02 11.4533 10.8667 12.16 10.56 12.76C10.2667 13.3467 9.86667 13.8333 9.36 14.22C8.85333 14.6067 8.27333 14.8933 7.62 15.08C6.96667 15.2667 6.29333 15.36 5.6 15.36C4.58667 15.36 3.60667 15.1867 2.66 14.84C1.71333 14.48 0.926667 13.9733 0.3 13.32L2.54 11.04C2.88667 11.4667 3.34 11.8267 3.9 12.12C4.47333 12.4 5.04 12.54 5.6 12.54C5.85333 12.54 6.1 12.5133 6.34 12.46C6.58 12.4067 6.78667 12.32 6.96 12.2C7.14667 12.08 7.29333 11.92 7.4 11.72C7.50667 11.52 7.56 11.28 7.56 11C7.56 10.7333 7.49333 10.5067 7.36 10.32C7.22667 10.1333 7.03333 9.96667 6.78 9.82C6.54 9.66 6.23333 9.52 5.86 9.4C5.5 9.26667 5.08667 9.12667 4.62 8.98C4.16667 8.83333 3.72 8.66 3.28 8.46C2.85333 8.26 2.46667 8.00667 2.12 7.7C1.78667 7.38 1.51333 7 1.3 6.56C1.1 6.10667 1 5.56 1 4.92C1 4.13333 1.16 3.46 1.48 2.9C1.8 2.34 2.22 1.88 2.74 1.52C3.26 1.16 3.84667 0.899999 4.5 0.739999C5.15333 0.566666 5.81333 0.48 6.48 0.48C7.28 0.48 8.09333 0.626666 8.92 0.919999C9.76 1.21333 10.4933 1.64667 11.12 2.22L8.94 4.52ZM22.2164 15V9.08H16.6964V15H13.2764V0.84H16.6964V6.2H22.2164V0.84H25.6364V15H22.2164ZM38.1498 15L37.0498 12.22H31.5698L30.5298 15H26.8098L32.7498 0.84H36.0698L41.9498 15H38.1498ZM34.3498 4.62L32.5498 9.48H36.1098L34.3498 4.62ZM50.7002 15L47.6402 9.38H46.4802V15H43.1202V0.84H48.5202C49.2002 0.84 49.8602 0.913333 50.5002 1.06C51.1535 1.19333 51.7335 1.42667 52.2402 1.76C52.7602 2.09333 53.1735 2.53333 53.4802 3.08C53.7868 3.62667 53.9402 4.30667 53.9402 5.12C53.9402 6.08 53.6802 6.88667 53.1602 7.54C52.6402 8.19333 51.9202 8.66 51.0002 8.94L54.7002 15H50.7002ZM50.5602 5.18C50.5602 4.84667 50.4868 4.58 50.3402 4.38C50.2068 4.16667 50.0268 4.00667 49.8002 3.9C49.5868 3.78 49.3402 3.7 49.0602 3.66C48.7935 3.62 48.5335 3.6 48.2802 3.6H46.4602V6.9H48.0802C48.3602 6.9 48.6468 6.88 48.9402 6.84C49.2335 6.78667 49.5002 6.7 49.7402 6.58C49.9802 6.46 50.1735 6.28667 50.3202 6.06C50.4802 5.83333 50.5602 5.54 50.5602 5.18ZM56.3819 15V0.84H65.9019V3.74H59.6819V6.4H65.5619V9.14H59.6819V12.08H66.2619V15H56.3819ZM81.7503 7.88C81.7503 9.12 81.517 10.1933 81.0503 11.1C80.597 11.9933 79.9903 12.7333 79.2303 13.32C78.4836 13.8933 77.637 14.32 76.6903 14.6C75.7436 14.8667 74.7836 15 73.8103 15H68.5303V0.84H73.6503C74.6503 0.84 75.637 0.96 76.6103 1.2C77.5836 1.42667 78.4503 1.81333 79.2103 2.36C79.9703 2.89333 80.5836 3.61333 81.0503 4.52C81.517 5.42667 81.7503 6.54667 81.7503 7.88ZM78.1903 7.88C78.1903 7.08 78.057 6.42 77.7903 5.9C77.537 5.36667 77.1903 4.94667 76.7503 4.64C76.3236 4.32 75.8303 4.09333 75.2703 3.96C74.7236 3.82667 74.157 3.76 73.5703 3.76H71.8703V12.04H73.4903C74.1036 12.04 74.6903 11.9733 75.2503 11.84C75.8236 11.6933 76.3236 11.46 76.7503 11.14C77.1903 10.82 77.537 10.3933 77.7903 9.86C78.057 9.32667 78.1903 8.66667 78.1903 7.88ZM91.5986 15L88.5386 9.38H87.3786V15H84.0186V0.84H89.4186C90.0986 0.84 90.7586 0.913333 91.3986 1.06C92.0519 1.19333 92.6319 1.42667 93.1386 1.76C93.6586 2.09333 94.0719 2.53333 94.3786 3.08C94.6853 3.62667 94.8386 4.30667 94.8386 5.12C94.8386 6.08 94.5786 6.88667 94.0586 7.54C93.5386 8.19333 92.8186 8.66 91.8986 8.94L95.5986 15H91.5986ZM91.4586 5.18C91.4586 4.84667 91.3853 4.58 91.2386 4.38C91.1053 4.16667 90.9253 4.00667 90.6986 3.9C90.4853 3.78 90.2386 3.7 89.9586 3.66C89.6919 3.62 89.4319 3.6 89.1786 3.6H87.3586V6.9H88.9786C89.2586 6.9 89.5453 6.88 89.8386 6.84C90.1319 6.78667 90.3986 6.7 90.6386 6.58C90.8786 6.46 91.0719 6.28667 91.2186 6.06C91.3786 5.83333 91.4586 5.54 91.4586 5.18ZM106.88 15L105.78 12.22H100.3L99.2603 15H95.5403L101.48 0.84H104.8L110.68 15H106.88ZM103.08 4.62L101.28 9.48H104.84L103.08 4.62ZM124.079 14.14C123.386 14.5 122.572 14.7933 121.639 15.02C120.719 15.2467 119.712 15.36 118.619 15.36C117.486 15.36 116.439 15.18 115.479 14.82C114.532 14.46 113.712 13.9533 113.019 13.3C112.339 12.6467 111.806 11.8667 111.419 10.96C111.032 10.04 110.839 9.02 110.839 7.9C110.839 6.76667 111.032 5.74 111.419 4.82C111.819 3.9 112.366 3.12 113.059 2.48C113.752 1.82667 114.566 1.32667 115.499 0.979999C116.432 0.633332 117.439 0.459999 118.519 0.459999C119.639 0.459999 120.679 0.633332 121.639 0.979999C122.599 1.31333 123.379 1.76667 123.979 2.34L121.819 4.8C121.486 4.41333 121.046 4.1 120.499 3.86C119.952 3.60667 119.332 3.48 118.639 3.48C118.039 3.48 117.486 3.59333 116.979 3.82C116.472 4.03333 116.032 4.34 115.659 4.74C115.286 5.12667 114.992 5.59333 114.779 6.14C114.579 6.67333 114.479 7.26 114.479 7.9C114.479 8.55333 114.572 9.15333 114.759 9.7C114.946 10.2467 115.219 10.72 115.579 11.12C115.952 11.5067 116.406 11.8133 116.939 12.04C117.486 12.2533 118.106 12.36 118.799 12.36C119.199 12.36 119.579 12.3333 119.939 12.28C120.299 12.2133 120.632 12.1133 120.939 11.98V9.4H118.239V6.64H124.079V14.14ZM141.63 7.86C141.63 8.98 141.437 10.0067 141.05 10.94C140.663 11.86 140.123 12.6533 139.43 13.32C138.75 13.9733 137.937 14.48 136.99 14.84C136.043 15.2 135.017 15.38 133.91 15.38C132.803 15.38 131.777 15.2 130.83 14.84C129.897 14.48 129.083 13.9733 128.39 13.32C127.71 12.6533 127.177 11.86 126.79 10.94C126.403 10.0067 126.21 8.98 126.21 7.86C126.21 6.72667 126.403 5.70667 126.79 4.8C127.177 3.88 127.71 3.1 128.39 2.46C129.083 1.82 129.897 1.32667 130.83 0.979999C131.777 0.633332 132.803 0.459999 133.91 0.459999C135.017 0.459999 136.043 0.633332 136.99 0.979999C137.937 1.32667 138.75 1.82 139.43 2.46C140.123 3.1 140.663 3.88 141.05 4.8C141.437 5.70667 141.63 6.72667 141.63 7.86ZM137.97 7.86C137.97 7.24667 137.87 6.67333 137.67 6.14C137.47 5.60667 137.19 5.15333 136.83 4.78C136.483 4.39333 136.057 4.09333 135.55 3.88C135.057 3.65333 134.51 3.54 133.91 3.54C133.31 3.54 132.763 3.65333 132.27 3.88C131.777 4.09333 131.35 4.39333 130.99 4.78C130.63 5.15333 130.35 5.60667 130.15 6.14C129.963 6.67333 129.87 7.24667 129.87 7.86C129.87 8.5 129.97 9.09333 130.17 9.64C130.37 10.1733 130.643 10.6333 130.99 11.02C131.35 11.4067 131.777 11.7133 132.27 11.94C132.763 12.1533 133.31 12.26 133.91 12.26C134.51 12.26 135.057 12.1533 135.55 11.94C136.043 11.7133 136.47 11.4067 136.83 11.02C137.19 10.6333 137.47 10.1733 137.67 9.64C137.87 9.09333 137.97 8.5 137.97 7.86ZM152.882 15L147.182 5.74H147.122L147.202 15H143.882V0.84H147.782L153.462 10.08H153.522L153.442 0.84H156.762V15H152.882Z" fill="black"/>
</svg>
